<?xml version="1.0" encoding="utf-8"?>
<!-- Generator: Adobe Illustrator 26.3.1, SVG Export Plug-In . SVG Version: 6.00 Build 0)  -->
<svg version="1.1" id="Layer_1" xmlns="http://www.w3.org/2000/svg" xmlns:xlink="http://www.w3.org/1999/xlink" x="0px" y="0px"
	 viewBox="0 0 100 100" style="enable-background:new 0 0 100 100;" xml:space="preserve">
<style type="text/css">
	.st0{fill:#7D7D7D;}
	.st1{fill:#FFFFFF;}
</style>
<g>
	<path class="st0" d="M97.5,50C97.5,23.77,76.23,2.5,50,2.5S2.5,23.77,2.5,50c0,23.71,17.37,43.36,40.08,46.92V63.73H30.52V50h12.06
		V39.54c0-11.9,7.09-18.48,17.94-18.48c5.2,0,10.63,0.93,10.63,0.93v11.69h-5.99c-5.9,0-7.74,3.66-7.74,7.42V50H70.6l-2.11,13.73
		H57.42v33.19C80.13,93.36,97.5,73.71,97.5,50z"/>
	<path class="st1" d="M68.49,63.73L70.6,50H57.42v-8.91c0-3.76,1.84-7.42,7.74-7.42h5.99V21.98c0,0-5.44-0.93-10.63-0.93
		c-10.85,0-17.94,6.58-17.94,18.48V50H30.52v13.73h12.06v33.19C45,97.3,47.48,97.5,50,97.5s5-0.2,7.42-0.58V63.73H68.49z"/>
</g>
</svg>
